<?xml version="1.0" encoding="UTF-8" standalone="no"?>
<!-- Created with Inkscape (http://www.inkscape.org/) -->

<svg
   version="1.1"
   id="svg2001"
   xml:space="preserve"
   width="682.66669"
   height="682.66669"
   viewBox="0 0 682.66669 682.66669"
   xmlns="http://www.w3.org/2000/svg"
   xmlns:svg="http://www.w3.org/2000/svg"><defs
     id="defs2005"><clipPath
       clipPathUnits="userSpaceOnUse"
       id="clipPath2015"><path
         d="M 0,512 H 512 V 0 H 0 Z"
         id="path2013" /></clipPath></defs><g
     id="g2007"
     transform="matrix(1.3333333,0,0,-1.3333333,0,682.66667)"><g
       id="g2009"><g
         id="g2011"
         clip-path="url(#clipPath2015)"><g
           id="g2017"
           transform="translate(106,406)"><path
             d="M 0,0 H 391 L 331,-210 H 60"
             style="fill:none;stroke:#000000;stroke-width:30;stroke-linecap:round;stroke-linejoin:round;stroke-miterlimit:10;stroke-dasharray:none;stroke-opacity:1"
             id="path2019" /></g><g
           id="g2021"
           transform="translate(256,76)"><path
             d="m 0,0 c 0,-16.568 -13.432,-30 -30,-30 -16.568,0 -30,13.432 -30,30 0,16.568 13.432,30 30,30 C -13.432,30 0,16.568 0,0 Z"
             style="fill:none;stroke:#000000;stroke-width:30;stroke-linecap:round;stroke-linejoin:round;stroke-miterlimit:10;stroke-dasharray:none;stroke-opacity:1"
             id="path2023" /></g><g
           id="g2025"
           transform="translate(407,76)"><path
             d="m 0,0 c 0,-16.568 -13.432,-30 -30,-30 -16.568,0 -30,13.432 -30,30 0,16.568 13.432,30 30,30 C -13.432,30 0,16.568 0,0 Z"
             style="fill:none;stroke:#000000;stroke-width:30;stroke-linecap:round;stroke-linejoin:round;stroke-miterlimit:10;stroke-dasharray:none;stroke-opacity:1"
             id="path2027" /></g><g
           id="g2029"
           transform="translate(437,136)"><path
             d="m 0,0 h -252.459 c -22.301,0 -36.806,23.469 -26.833,43.417 L -271,60"
             style="fill:none;stroke:#000000;stroke-width:30;stroke-linecap:round;stroke-linejoin:round;stroke-miterlimit:10;stroke-dasharray:none;stroke-opacity:1"
             id="path2031" /></g><g
           id="g2033"
           transform="translate(15,466)"><path
             d="M 0,0 H 73.861 C 99.402,-89.409 151,-270 151,-270"
             style="fill:none;stroke:#000000;stroke-width:30;stroke-linecap:round;stroke-linejoin:round;stroke-miterlimit:10;stroke-dasharray:none;stroke-opacity:1"
             id="path2035" /></g></g></g></g></svg>
